<?xml version="1.0" standalone="no"?><!DOCTYPE svg PUBLIC "-//W3C//DTD SVG 1.1//EN" "http://www.w3.org/Graphics/SVG/1.1/DTD/svg11.dtd" ><svg xmlns="http://www.w3.org/2000/svg"><metadata></metadata><defs><font id="fonteditor" horiz-adv-x="256"><font-face font-family="e¹kckcÑ{OS" font-weight="400" font-stretch="normal" units-per-em="256" panose-1="2 0 0 0 0 0 0 0 0 0" ascent="227" descent="-86" x-height="0" bbox="9 -26 246 205" underline-thickness="0" underline-position="0" unicode-range="U+4efd-98ce" /><missing-glyph horiz-adv-x="256"  /><glyph glyph-name="uni4EFD" unicode="&#x4efd;" d="M154 -20 L154 -6 L174 -6 Q193 -7 192 11 L192 92 L143 92 Q146 10 76 -25 L76 -10 Q125 21 123 92 L95 92 L95 105 L212 105 L212 15 Q213 -21 178 -20 L154 -20 ZM39 -25 L39 126 Q27 118 10 110 L10 123 Q51 148 61 205 L82 205 Q73 167 59 147 L59 -25 L39 -25 ZM243 99 Q180 129 170 201 L191 201 Q199 145 243 113 L243 99 ZM73 99 L73 113 Q118 144 125 201 L146 201 Q137 129 73 99 Z" /><glyph glyph-name="uni4F3C" unicode="&#x4f3c;" d="M246 -25 Q212 8 197 48 Q184 13 143 -25 L143 -7 Q175 30 185 72 Q196 114 196 199 L216 199 Q216 119 206 75 Q220 26 246 -6 L246 -25 ZM40 -25 L40 130 Q27 119 9 110 L9 123 Q49 150 58 205 L79 205 Q72 172 60 153 L60 -25 L40 -25 ZM93 2 L93 194 L113 194 L113 33 Q129 39 157 57 L157 40 Q129 18 93 2 ZM150 128 Q148 152 138 180 L155 180 Q164 156 169 128 L150 128 Z" /><glyph glyph-name="uni5085" unicode="&#x5085;" d="M77 172 L77 184 L147 184 L147 205 L167 205 L167 184 L199 184 L199 203 L218 203 L218 184 L240 184 L240 172 L167 172 L167 156 L227 156 L227 63 L209 63 L209 79 L167 79 L167 63 L147 63 L147 79 L105 79 L105 63 L86 63 L86 156 L147 156 L147 172 L77 172 ZM38 -25 L38 131 Q26 121 10 111 L10 125 Q47 156 54 205 L74 205 Q68 174 58 156 L58 -25 L38 -25 ZM71 34 L71 47 L189 47 L189 60 L209 60 L209 47 L245 47 L245 34 L209 34 L209 6 Q210 -23 179 -22 L160 -22 L160 -8 L174 -8 Q190 -9 189 6 L189 34 L71 34 ZM105 112 L105 91 L147 91 L147 112 L105 112 ZM167 112 L167 91 L209 91 L209 112 L167 112 ZM105 144 L105 124 L147 124 L147 144 L105 144 ZM209 144 L167 144 L167 124 L209 124 L209 144 ZM115 -9 Q111 5 101 24 L119 24 Q130 7 135 -9 L115 -9 Z" /><glyph glyph-name="uni518C" unicode="&#x518c;" d="M12 94 L12 108 L37 108 L37 194 L114 194 L114 108 L142 108 L142 194 L221 194 L221 108 L245 108 L245 94 L221 94 L221 5 Q222 -19 193 -18 L177 -18 L177 -4 L189 -4 Q202 -4 202 7 L202 94 L161 94 L161 74 Q164 7 122 -26 L122 -9 Q144 19 142 69 L142 94 L114 94 L114 8 Q115 -16 87 -16 L70 -16 L70 -2 L83 -2 Q97 -3 96 9 L96 94 L56 94 L56 73 Q59 6 17 -26 L17 -10 Q39 19 37 69 L37 94 L12 94 ZM161 180 L161 108 L202 108 L202 180 L161 180 ZM56 180 L56 108 L96 108 L96 180 L56 180 Z" /><glyph glyph-name="uni5230" unicode="&#x5230;" d="M15 178 L15 192 L148 192 L148 178 L81 178 Q63 146 40 124 Q94 124 116 127 Q108 146 101 160 L118 160 Q133 134 144 99 L125 99 L120 114 Q80 109 20 109 L20 124 Q45 149 59 178 L15 178 ZM19 58 L19 72 L70 72 L70 98 L90 98 L90 72 L142 72 L142 58 L90 58 L90 7 Q115 10 147 16 L147 3 Q83 -12 11 -11 L11 4 Q44 4 70 6 L70 58 L19 58 ZM179 -21 L179 -7 L198 -7 Q214 -8 213 6 L213 204 L233 204 L233 7 Q234 -22 206 -21 L179 -21 ZM163 26 L163 182 L182 182 L182 26 L163 26 Z" /><glyph glyph-name="uni53D1" unicode="&#x53d1;" d="M23 147 L23 162 Q31 176 35 198 L57 198 Q50 174 43 162 L93 162 Q99 181 102 205 L124 205 Q120 181 115 162 L184 162 L184 198 L204 198 L204 162 L243 162 L243 147 L111 147 Q106 129 100 113 L220 113 L220 98 Q198 48 163 21 Q186 4 240 -11 L240 -24 Q181 -9 149 11 Q117 -8 56 -24 L56 -11 Q108 3 135 22 Q110 43 87 86 Q64 41 13 -6 L13 8 Q71 74 90 147 L23 147 ZM93 99 Q90 92 87 86 L110 86 Q126 53 150 32 Q178 56 198 99 L93 99 Z" /><glyph glyph-name="uni540D" unicode="&#x540d;" d="M15 56 L15 69 Q84 84 119 103 Q86 121 53 129 L53 138 Q42 132 17 123 L17 136 Q74 159 98 205 L121 205 Q120 203 117 198 Q114 193 107 183 L222 183 L222 169 Q174 102 100 78 L221 78 L221 13 Q222 -19 191 -18 L58 -18 L58 65 Q38 61 15 56 ZM78 -4 L185 -4 Q202 -5 201 12 L201 64 L78 64 L78 -4 ZM95 169 Q80 153 59 141 Q100 133 131 118 L131 110 Q167 132 195 169 L95 169 Z" /><glyph glyph-name="uni547C" unicode="&#x547c;" d="M23 2 L23 185 L88 185 L88 31 Q89 1 60 2 L23 2 ZM102 177 L102 191 L196 191 Q216 191 240 198 L240 182 Q218 177 198 177 L182 177 L182 85 L244 85 L244 71 L182 71 L182 8 Q183 -22 154 -21 L130 -21 L130 -7 L147 -7 Q162 -7 162 7 L162 71 L97 71 L97 85 L162 85 L162 177 L102 177 ZM41 16 L56 16 Q71 15 70 29 L70 172 L41 172 L41 16 ZM206 105 Q214 130 216 156 L234 156 Q230 121 222 105 L206 105 ZM121 104 Q112 125 109 156 L127 156 Q131 121 138 104 L121 104 Z" /><glyph glyph-name="uni591A" unicode="&#x591a;" d="M30 45 L30 57 Q90 75 117 107 Q76 92 17 82 L17 96 Q76 108 112 122 Q84 136 55 142 L55 153 Q40 147 20 142 L20 155 Q75 169 102 205 L125 205 Q122 200 115 193 Q112 189 110 187 L223 187 L223 173 Q182 131 125 110 L143 110 Q142 108 139 106 Q131 95 125 91 L233 91 L233 77 Q163 -6 16 -24 L16 -11 Q91 2 128 20 Q95 37 64 44 L64 54 Q62 54 59 52 Q40 47 30 45 ZM204 77 L109 77 Q95 66 69 56 Q104 50 138 35 L138 26 Q173 44 204 77 ZM194 173 L94 173 Q79 163 60 155 Q95 148 125 135 L125 128 Q161 145 194 173 Z" /><glyph glyph-name="uni5927" unicode="&#x5927;" d="M15 137 L15 152 L116 152 L116 205 L140 205 L140 152 L241 152 L241 137 L140 137 Q139 46 243 -11 L243 -25 Q156 14 129 75 Q99 13 13 -25 L13 -11 Q119 46 116 137 L15 137 Z" /><glyph glyph-name="uni59D3" unicode="&#x59d3;" d="M12 158 L12 172 L24 172 L24 205 L41 205 L41 172 L77 172 L77 205 L94 205 L94 172 L105 172 L105 158 L94 158 L94 100 Q95 42 69 13 Q79 2 105 -11 L105 -25 Q76 -11 59 2 Q33 -15 11 -25 L11 -11 Q33 0 48 13 Q23 42 24 100 L24 158 L12 158 ZM105 116 L105 129 Q126 152 126 192 L145 192 Q144 177 141 167 L169 167 L169 205 L189 205 L189 167 L241 167 L241 153 L189 153 L189 85 L239 85 L239 71 L189 71 L189 -2 L245 -2 L245 -16 L108 -16 L108 -2 L169 -2 L169 71 L115 71 L115 85 L169 85 L169 153 L137 153 Q130 132 105 116 ZM59 26 Q77 53 77 99 L77 158 L41 158 L41 99 Q41 53 59 26 Z" /><glyph glyph-name="uni5E08" unicode="&#x5e08;" d="M102 177 L102 191 L246 191 L246 177 L183 177 L183 142 L236 142 L236 38 Q237 9 208 10 L196 10 L196 24 L204 24 Q218 23 217 38 L217 128 L183 128 L183 -25 L164 -25 L164 128 L129 128 L129 7 L111 7 L111 142 L164 142 L164 177 L102 177 ZM33 -25 L33 -11 Q69 22 67 63 L67 205 L86 205 L86 70 Q90 10 33 -25 ZM23 37 L23 185 L41 185 L41 37 L23 37 Z" /><glyph glyph-name="uni5F88" unicode="&#x5f88;" d="M98 -24 L98 194 L226 194 L226 116 Q227 87 197 87 L118 87 L118 1 Q137 7 158 18 L158 3 Q127 -14 98 -24 ZM44 -25 L44 87 Q31 78 12 71 L12 84 Q53 103 64 143 L84 143 Q77 119 64 104 L64 -25 L44 -25 ZM243 -22 Q165 5 144 75 L164 75 Q171 52 183 36 Q209 51 217 75 L237 75 Q225 42 191 26 Q207 7 243 -9 L243 -22 ZM191 100 Q207 99 207 118 L207 134 L118 134 L118 100 L191 100 ZM118 180 L118 147 L207 147 L207 180 L118 180 ZM12 133 L12 145 Q52 164 65 205 L85 205 Q73 154 12 133 Z" /><glyph glyph-name="uni6446" unicode="&#x6446;" d="M89 129 L89 195 L233 195 L233 156 Q235 127 205 129 L89 129 ZM92 87 L92 101 L151 101 L151 120 L171 120 L171 101 L230 101 L230 87 L171 87 L171 57 L243 57 L243 43 L157 43 Q136 15 112 0 Q152 0 169 1 Q189 2 206 5 Q204 9 199 17 Q195 25 193 29 L209 29 Q227 6 237 -21 L217 -21 Q215 -14 212 -6 Q166 -14 110 -14 L89 -14 L89 0 Q119 22 133 43 L80 43 L80 57 L151 57 L151 87 L92 87 ZM13 150 L13 163 L39 163 L39 205 L59 205 L59 163 L79 163 L79 150 L59 150 L59 94 Q70 97 80 102 L80 88 Q70 82 59 79 L59 2 Q60 -22 32 -22 L16 -22 L16 -8 L26 -8 Q39 -8 39 3 L39 72 Q34 71 22 69 Q15 68 11 67 L11 84 Q16 85 24 86 Q34 88 39 89 L39 150 L13 150 ZM216 182 L189 182 L189 142 L201 142 Q217 141 216 156 L216 182 ZM107 142 L132 142 L132 182 L107 182 L107 142 ZM148 182 L148 142 L174 142 L174 182 L148 182 Z" /><glyph glyph-name="uni670D" unicode="&#x670d;" d="M145 -24 L145 -10 Q149 -6 158 0 Q173 11 179 18 Q158 41 146 84 L165 84 Q174 52 189 31 Q206 54 213 96 L137 96 L137 -25 L118 -25 L118 192 L229 192 L229 158 Q230 128 199 129 L173 129 L173 143 L194 143 Q210 142 209 158 L209 178 L137 178 L137 109 L232 109 L232 96 Q222 44 200 18 Q212 6 241 -10 L241 -24 Q210 -8 190 7 Q172 -7 145 -24 ZM13 -25 L13 -9 Q28 8 27 56 L27 193 L96 193 L96 2 Q97 -22 71 -21 L57 -21 L57 -8 L68 -8 Q79 -9 78 2 L78 58 L45 58 Q48 1 13 -25 ZM45 120 L45 71 L78 71 L78 120 L45 120 ZM45 180 L45 132 L78 132 L78 180 L45 180 Z" /><glyph glyph-name="uni6CE8" unicode="&#x6ce8;" d="M79 157 L79 172 L147 172 L147 205 L169 205 L169 172 L238 172 L238 157 L169 157 L169 92 L231 92 L231 78 L169 78 L169 0 L245 0 L245 -12 L67 -12 L67 0 L147 0 L147 78 L86 78 L86 92 L147 92 L147 157 L79 157 ZM16 -20 Q39 25 46 80 L63 80 Q58 26 38 -20 L16 -20 ZM44 92 Q38 111 23 141 L41 141 Q54 119 63 92 L44 92 ZM41 152 Q34 178 21 201 L40 201 Q52 181 61 152 L41 152 Z" /><glyph glyph-name="uni7684" unicode="&#x7684;" d="M21 -12 L21 173 L50 173 Q55 184 58 204 L78 204 Q73 182 69 173 L113 173 L113 17 Q114 -13 85 -12 L21 -12 ZM176 -19 L176 -5 L199 -5 Q217 -6 216 11 L216 164 L161 164 Q151 142 122 124 L122 138 Q149 160 152 205 L172 205 Q172 203 171 198 Q169 183 166 178 L236 178 L236 13 Q237 -21 205 -19 L176 -19 ZM40 0 L80 0 Q95 0 94 16 L94 77 L40 77 L40 0 ZM40 159 L40 91 L94 91 L94 159 L40 159 ZM160 50 Q157 81 142 119 L158 119 Q174 86 179 50 L160 50 Z" /><glyph glyph-name="uni7701" unicode="&#x7701;" d="M48 -18 L48 104 Q31 103 13 101 L13 112 Q128 124 178 158 L196 158 Q176 170 165 195 L187 195 Q199 167 241 153 L241 141 Q219 147 204 154 Q156 122 94 111 L221 111 L221 13 Q221 -19 187 -18 L48 -18 ZM68 60 L68 32 L201 32 L201 60 L68 60 ZM68 -5 L184 -5 Q202 -5 201 10 L201 20 L68 20 L68 -5 ZM68 98 L68 71 L201 71 L201 98 L68 98 ZM15 141 L15 153 Q57 167 69 195 L90 195 Q77 155 15 141 ZM118 145 L118 205 L138 205 L138 145 L118 145 Z" /><glyph glyph-name="uni8212" unicode="&#x8212;" d="M134 131 Q132 132 128 134 Q121 138 110 145 L110 132 L80 132 L80 103 L124 103 L124 89 L80 89 L80 59 L117 59 L117 11 Q118 -17 87 -16 L25 -16 L25 59 L61 59 L61 89 L15 89 L15 103 L61 103 L61 132 L31 132 L31 143 Q22 137 9 131 L9 145 Q48 168 60 205 L83 205 Q97 167 134 145 L134 131 ZM144 -22 L144 -8 L156 -8 Q173 -9 172 8 L172 102 L130 102 L130 116 L168 116 Q160 138 144 160 L162 160 Q177 138 183 124 Q200 145 215 178 L134 178 L134 192 L237 192 L237 178 Q217 141 196 116 L242 116 L242 65 L225 65 L225 102 L191 102 L191 8 Q193 -24 162 -22 L144 -22 ZM42 -3 L83 -3 Q100 -4 99 13 L99 46 L42 46 L42 -3 ZM71 184 Q58 161 35 146 L108 146 Q86 160 71 184 Z" /><glyph glyph-name="uni98CE" unicode="&#x98ce;" d="M242 -24 Q198 0 202 49 L202 178 L54 178 L54 49 Q58 0 14 -24 L14 -9 Q35 7 33 40 L33 192 L222 192 L222 40 Q220 7 242 -9 L242 -24 ZM189 1 Q150 25 128 48 Q104 23 67 1 L67 15 Q98 39 117 61 Q89 97 78 155 L97 155 Q107 106 128 76 Q147 106 159 155 L178 155 Q165 94 139 61 Q158 39 189 15 L189 1 Z" /></font>
</defs>
</svg>
